 <svg  version="1.0" xmlns="http://www.w3.org/2000/svg"  width="300.000000pt" height="198.000000pt" viewBox="0 0 300.000000 198.000000"  preserveAspectRatio="xMidYMid meet">  <g transform="translate(0.000000,198.000000) scale(0.100000,-0.100000)" fill="#fdfcfc" stroke="none"> <path d="M2239 1884 c-14 -17 -5 -40 24 -58 13 -8 22 -6 38 10 17 18 19 25 10 43 -14 25 -53 28 -72 5z m59 -17 c4 -20 -25 -34 -40 -19 -15 15 -1 44 19 40 10 -2 19 -11 21 -21z"/> <path d="M2487 1852 c-10 -10 -17 -23 -17 -29 0 -10 32 -43 43 -43 11 0 37 31 37 45 0 15 -26 45 -39 45 -4 0 -15 -8 -24 -18z m43 -27 c0 -18 -5 -25 -19 -25 -11 0 -21 6 -24 13 -7 20 4 37 24 37 14 0 19 -7 19 -25z"/> <path d="M965 1693 c-55 -14 -95 -66 -95 -125 0 -36 31 -95 55 -104 33 -13 11 -21 -62 -24 -43 -1 -84 -3 -92 -3 -7 0 -31 -17 -52 -37 -34 -32 -39 -42 -39 -83 0 -39 5 -51 34 -80 19 -19 46 -37 62 -40 15 -2 112 -5 215 -6 150 0 194 -4 221 -17 33 -15 35 -15 88 16 85 48 119 115 89 173 -26 49 -71 77 -123 77 -20 0 -36 3 -36 6 0 3 14 19 30 36 17 16 33 40 36 54 17 67 -31 144 -97 158 -36 7 -204 6 -234 -1z m277 -52 c27 -24 33 -36 33 -71 0 -35 -6 -47 -33 -71 -18 -16 -43 -29 -56 -29 -20 0 -22 -4 -18 -26 4 -23 3 -25 -15 -16 -11 6 -25 18 -33 26 -9 12 -32 16 -85 16 -64 0 -77 3 -103 25 -37 31 -48 75 -32 116 21 49 51 58 187 59 121 0 123 0 155 -29z m94 -265 c55 -46 19 -146 -52 -146 -19 0 -24 -5 -24 -26 l0 -26 -34 26 -35 26 -205 0 c-131 0 -214 4 -230 11 -49 23 -58 97 -16 139 19 19 35 20 294 20 275 0 275 0 302 -24z"/> <path d="M1050 1623 c-55 -11 -66 -53 -26 -100 22 -25 25 -26 31 -10 8 20 55 23 73 5 16 -16 31 27 26 72 -6 53 -14 48 -16 -11 l-1 -54 -7 45 c-7 43 -7 43 -8 10 -2 -35 -3 -36 -37 -32 -29 3 -35 8 -35 27 0 18 7 25 30 30 16 4 32 11 35 16 6 9 -20 10 -65 2z m-10 -35 c0 -13 3 -33 6 -45 4 -13 2 -23 -4 -23 -14 0 -35 67 -26 82 10 16 24 8 24 -14z"/> <path d="M944 1325 c-4 -9 -2 -21 4 -27 15 -15 44 -1 40 19 -4 23 -36 29 -44 8z"/> <path d="M1024 1325 c-4 -9 -2 -21 4 -27 15 -15 44 -1 40 19 -4 23 -36 29 -44 8z"/> <path d="M1104 1325 c-4 -9 -2 -21 4 -27 15 -15 44 -1 40 19 -4 23 -36 29 -44 8z"/> <path d="M757 1562 c-22 -25 -21 -44 3 -59 40 -26 77 22 44 58 -21 24 -27 24 -47 1z m43 -27 c0 -18 -5 -25 -19 -25 -11 0 -21 6 -24 13 -7 20 4 37 24 37 14 0 19 -7 19 -25z"/> <path d="M1687 1571 c-49 -10 -84 -37 -115 -87 l-24 -39 43 42 c50 48 84 63 140 63 101 0 179 -78 179 -181 0 -28 4 -39 15 -39 22 0 21 -114 -1 -132 -9 -7 -27 -23 -40 -35 -28 -26 -43 -31 -25 -9 7 8 14 38 16 68 3 36 1 47 -5 33 -5 -11 -9 -33 -9 -50 -1 -23 -4 -27 -11 -15 -8 12 -10 10 -10 -11 0 -14 -6 -31 -12 -38 -11 -10 -10 -11 5 -6 9 4 17 4 17 1 0 -6 -102 -56 -114 -56 -3 0 -5 3 -5 8 4 23 -4 32 -25 32 -36 0 -43 -20 -16 -42 23 -19 35 -19 88 -3 39 13 23 -9 -28 -38 -44 -25 -53 -27 -68 -16 -15 12 -15 12 1 -7 9 -11 17 -31 17 -45 0 -18 -3 -20 -9 -10 -7 11 -11 9 -21 -9 -10 -18 -10 -21 2 -14 7 5 20 7 29 6 12 -2 15 4 11 26 -3 26 2 33 49 62 50 30 53 31 66 14 18 -25 16 -42 -6 -49 -23 -7 -100 -75 -85 -75 13 0 49 26 80 57 23 23 31 25 72 19 26 -3 67 -19 92 -34 l44 -27 74 -203 c49 -135 72 -211 68 -226 -7 -29 -65 -64 -121 -75 -36 -7 -49 -4 -84 16 -2 2 4 11 13 22 13 14 16 28 11 54 -4 21 -3 37 4 41 6 4 11 12 11 18 0 19 -39 -23 -42 -46 -3 -23 -50 -35 -71 -17 -7 6 -19 6 -26 1 -21 -12 38 -40 64 -29 31 12 45 10 45 -5 0 -19 -73 -25 -112 -9 -35 15 -48 16 -48 4 0 -4 15 -13 33 -19 32 -12 32 -12 -10 -7 -34 4 -43 2 -43 -10 0 -20 65 -20 104 0 26 14 31 14 46 0 9 -8 21 -15 27 -15 6 0 13 -7 17 -15 4 -10 -3 -17 -22 -21 -15 -3 -31 -7 -37 -9 -5 -2 169 -4 388 -4 l397 -1 0 -34 0 -34 -432 -6 c-238 -4 -782 -6 -1208 -4 l-775 3 0 35 0 35 297 5 298 5 -15 29 c-8 15 -15 30 -15 31 0 2 21 16 46 32 l46 28 -8 200 c-5 110 -8 223 -9 250 l0 50 334 3 c261 2 336 -1 343 -10 6 -10 12 -8 23 6 8 11 15 26 15 33 0 7 7 13 15 13 25 0 16 24 -17 45 -53 33 -67 69 -69 175 -3 118 5 135 66 145 40 5 53 2 98 -23 58 -32 77 -60 77 -112 0 -56 16 -69 24 -20 5 30 12 43 26 47 16 4 20 14 20 44 0 70 -37 137 -93 165 -39 21 -56 6 -19 -16 44 -27 82 -83 86 -124 3 -46 -10 -46 -65 -1 -53 45 -75 57 -119 65 l-35 7 25 12 c32 15 63 5 116 -40 32 -26 31 -24 -7 14 -56 55 -91 67 -119 42 -11 -10 -20 -24 -20 -31 0 -8 -15 -14 -37 -16 -34 -3 -38 -7 -54 -49 -9 -25 -26 -56 -37 -67 -39 -39 -20 -124 35 -153 13 -7 23 -17 23 -22 0 -5 13 -23 30 -38 55 -53 50 -54 -309 -51 l-328 3 -32 -27 -32 -27 5 -171 c4 -94 9 -198 12 -232 l5 -60 -40 -35 c-24 -20 -41 -43 -41 -55 0 -12 -7 -25 -16 -28 -9 -3 -127 -6 -263 -6 -207 0 -250 -2 -269 -16 -26 -18 -30 -69 -8 -100 14 -19 35 -19 993 -17 1110 3 1417 8 1431 26 18 23 22 63 8 83 -16 21 -37 23 -413 24 -117 0 -213 3 -213 8 0 4 18 17 39 29 53 31 68 74 47 140 -15 50 -96 277 -114 325 -13 32 -69 88 -88 88 -8 0 -14 5 -14 10 0 6 -12 10 -26 10 -31 0 -76 25 -93 52 -11 17 -9 24 9 43 12 13 35 29 51 35 18 8 36 28 50 56 18 38 24 43 36 32 8 -6 22 -29 30 -50 17 -42 38 -58 77 -58 24 0 25 -2 20 -44 -6 -38 -3 -46 21 -68 21 -19 28 -37 30 -69 3 -55 40 -91 84 -83 24 5 34 0 57 -25 36 -41 75 -41 121 0 27 23 41 29 62 24 44 -9 81 26 81 78 0 30 7 48 24 66 22 24 30 47 27 77 0 6 -12 23 -26 38 -17 19 -25 38 -25 65 0 48 -32 81 -79 81 -23 0 -44 10 -68 30 -18 17 -40 30 -47 30 -18 0 -66 56 -66 76 0 24 -28 46 -68 55 -20 4 -51 13 -69 20 -29 12 -35 11 -62 -9 -17 -12 -37 -22 -46 -22 -27 0 -65 -46 -65 -78 0 -16 -7 -36 -16 -43 -14 -11 -18 -10 -30 6 -8 10 -14 26 -14 35 0 9 -7 41 -16 70 -31 103 -122 154 -237 131z m493 -125 c0 -18 40 -28 57 -14 17 14 59 -20 44 -35 -14 -14 9 -57 31 -57 11 0 18 -7 18 -20 0 -16 7 -20 34 -20 25 0 35 -5 39 -19 2 -11 19 -27 36 -35 25 -13 34 -14 50 -4 17 10 24 9 46 -12 22 -20 23 -25 11 -39 -12 -14 -12 -21 0 -49 7 -19 23 -36 34 -39 29 -8 29 -73 0 -73 -13 0 -25 -12 -35 -37 -14 -32 -14 -38 0 -53 13 -15 13 -19 -8 -38 -26 -24 -43 -28 -49 -10 -7 19 -83 -16 -83 -38 0 -15 -9 -20 -37 -22 -33 -3 -38 0 -38 17 0 30 -57 58 -83 41 -17 -10 -23 -8 -44 13 -21 21 -23 27 -13 44 17 26 -11 83 -40 83 -16 0 -20 7 -20 35 0 28 4 35 19 35 10 0 24 7 31 15 10 13 9 15 -9 15 -11 0 -21 6 -21 14 0 18 -48 30 -64 16 -15 -12 -52 22 -42 39 9 14 -16 62 -30 57 -7 -3 -14 6 -17 20 -3 17 1 28 10 31 21 8 37 54 22 63 -18 11 12 51 33 44 22 -7 58 12 58 31 0 10 10 15 30 15 19 0 30 -5 30 -14z m-614 -253 c-7 -17 -9 -16 -27 6 -24 29 -24 75 -1 106 l17 23 9 -58 c5 -32 5 -67 2 -77z"/> <path d="M2130 1393 c-56 -20 -83 -89 -56 -141 18 -34 39 -49 78 -54 14 -2 34 -10 44 -18 18 -14 18 -14 2 5 -15 19 -15 21 3 44 10 13 25 21 33 18 30 -12 36 75 8 109 -30 38 -72 52 -112 37z m78 -46 c6 -6 13 -24 17 -38 5 -22 0 -29 -33 -52 -54 -38 -92 -19 -92 47 0 44 80 77 108 43z"/> <path d="M2300 1271 c-15 -28 -13 -33 10 -21 11 6 20 17 20 25 0 21 -17 18 -30 -4z"/> <path d="M2300 1192 c-48 -25 -84 -96 -74 -147 9 -47 55 -100 100 -115 73 -24 153 17 175 90 38 125 -86 232 -201 172z m147 -44 c29 -30 42 -103 23 -137 -15 -30 -69 -61 -103 -61 -113 0 -158 148 -65 215 34 25 113 15 145 -17z"/> <path d="M2337 1569 c-24 -14 -22 -56 4 -70 18 -9 25 -7 42 9 11 11 17 27 14 36 -9 23 -40 36 -60 25z m41 -32 c4 -20 -25 -34 -40 -19 -15 15 -1 44 19 40 10 -2 19 -11 21 -21z"/> <path d="M1680 1531 c-18 -5 -21 -8 -10 -13 8 -3 31 1 50 8 30 11 31 12 10 12 -14 0 -36 -3 -50 -7z"/> <path d="M2582 1398 c-32 -32 18 -87 53 -58 28 23 12 70 -25 70 -9 0 -21 -5 -28 -12z m48 -13 c15 -18 5 -35 -21 -35 -12 0 -19 7 -19 18 0 33 20 42 40 17z"/> <path d="M1620 1259 c0 -24 23 -21 28 4 2 10 -3 17 -12 17 -10 0 -16 -9 -16 -21z"/> <path d="M1702 1263 c4 -21 33 -25 33 -3 0 8 -8 16 -18 18 -14 3 -18 -1 -15 -15z"/> <path d="M190 1185 c-26 -32 13 -81 48 -59 34 22 22 74 -18 74 -10 0 -23 -7 -30 -15z m50 -10 c10 -12 10 -18 0 -29 -14 -18 -40 -10 -40 13 0 32 20 40 40 16z"/> <path d="M1648 1160 c18 -15 28 -17 43 -10 32 17 22 30 -23 30 l-43 -1 23 -19z"/> <path d="M0 1075 c0 -9 6 -12 16 -8 19 7 35 -14 27 -34 -3 -8 -14 -13 -24 -10 -12 3 -19 0 -19 -9 0 -19 25 -18 44 2 22 21 20 40 -6 58 -28 20 -38 20 -38 1z"/> <path d="M1611 960 c0 -14 4 -123 11 -243 13 -245 15 -236 -57 -238 -34 -1 -36 -2 -15 -8 38 -11 73 2 88 33 11 23 12 49 3 144 -6 65 -15 167 -20 227 -4 61 -9 99 -10 85z"/> <path d="M2550 851 c-25 -47 36 -83 64 -38 8 12 8 22 0 35 -16 25 -51 27 -64 3z m48 -37 c-19 -19 -38 -11 -38 16 0 24 21 31 40 14 12 -12 12 -16 -2 -30z"/> <path d="M1910 834 c-15 -38 -12 -75 10 -146 24 -78 25 -87 3 -104 -10 -7 -16 -15 -13 -17 3 -3 17 5 32 18 l28 24 -26 58 c-23 51 -25 67 -20 126 6 71 2 84 -14 41z"/> <path d="M1317 724 c-3 -11 -9 -89 -12 -175 l-7 -156 77 -6 c124 -11 122 -11 128 26 3 17 8 40 12 50 7 15 -1 17 -88 17 -53 0 -98 3 -100 8 -2 4 -1 58 2 121 6 106 0 158 -12 115z m66 -282 c-18 -9 -36 -13 -39 -9 -12 12 5 22 38 23 l33 1 -32 -15z m68 -25 c-4 -4 -18 -3 -32 2 l-24 9 25 10 c26 10 48 -4 31 -21z"/> <path d="M2556 678 c-27 -39 18 -80 52 -46 18 18 14 46 -7 58 -26 14 -28 13 -45 -12z m49 -23 c0 -30 -39 -27 -43 3 -3 20 0 23 20 20 15 -2 23 -10 23 -23z"/> <path d="M228 659 c-22 -12 -23 -42 -3 -59 32 -26 81 13 59 48 -14 21 -33 25 -56 11z m43 -43 c-16 -19 -41 -10 -41 14 0 24 21 31 39 14 11 -10 12 -16 2 -28z"/> <path d="M1085 481 c-23 -3 -40 -11 -39 -18 3 -34 4 -35 19 -23 13 11 15 8 15 -13 0 -23 -5 -26 -52 -35 l-53 -10 71 -1 72 -1 6 38 c4 20 9 45 12 55 3 9 2 16 -3 16 -4 -1 -26 -5 -48 -8z"/> <path d="M960 465 c-17 -20 5 -20 40 0 l25 14 -26 1 c-15 0 -32 -7 -39 -15z"/> <path d="M1573 383 c31 -2 83 -2 115 0 31 2 5 3 -58 3 -63 0 -89 -1 -57 -3z"/> <path d="M1474 119 c-20 -23 -11 -51 20 -57 41 -8 63 48 27 68 -26 13 -25 13 -47 -11z m50 -8 c10 -16 -6 -42 -23 -39 -9 2 -17 13 -19 26 -3 16 2 22 17 22 11 0 22 -4 25 -9z"/> <path d="M1262 101 c-18 -11 -12 -51 10 -65 13 -8 22 -6 37 8 25 23 26 30 5 50 -17 18 -32 20 -52 7z m46 -29 c3 -17 -2 -22 -18 -22 -25 0 -38 29 -19 41 20 13 34 6 37 -19z"/> </g> </svg> 